<?xml version="1.0" encoding="windows-1252" standalone="no"?>
<svg xmlns="http://www.w3.org/2000/svg" xmlns:xlink="http://www.w3.org/1999/xlink" contentStyleType="text/css" height="428px" preserveAspectRatio="none" style="width:212px;height:428px;background:#FFFFFF;" version="1.1" viewBox="0 0 212 428" width="212px" zoomAndPan="magnify"><defs/><g><ellipse cx="108" cy="20" fill="#222222" rx="10" ry="10" style="stroke:#222222;stroke-width:1.0;"/><rect fill="#F1F1F1" height="33.9688" rx="12.5" ry="12.5" style="stroke:#181818;stroke-width:0.5;" width="50" x="83" y="50"/><text fill="#000000" font-family="sans-serif" font-size="12" lengthAdjust="spacing" textLength="30" x="93" y="71.1387">draft</text><rect fill="#F1F1F1" height="33.9688" rx="12.5" ry="12.5" style="stroke:#181818;stroke-width:0.5;" width="80" x="68" y="103.9688"/><text fill="#000000" font-family="sans-serif" font-size="12" lengthAdjust="spacing" textLength="60" x="78" y="125.1074">proposed</text><polygon fill="#F1F1F1" points="72.5,157.9375,143.5,157.9375,155.5,169.9375,143.5,181.9375,72.5,181.9375,60.5,169.9375,72.5,157.9375" style="stroke:#181818;stroke-width:0.5;"/><text fill="#000000" font-family="sans-serif" font-size="11" lengthAdjust="spacing" textLength="71" x="72.5" y="173.7456">Is accepted?</text><text fill="#000000" font-family="sans-serif" font-size="11" lengthAdjust="spacing" textLength="20" x="40.5" y="167.3433">yes</text><text fill="#000000" font-family="sans-serif" font-size="11" lengthAdjust="spacing" textLength="14" x="155.5" y="167.3433">no</text><rect fill="#F1F1F1" height="33.9688" rx="12.5" ry="12.5" style="stroke:#181818;stroke-width:0.5;" width="79" x="11" y="191.9375"/><text fill="#000000" font-family="sans-serif" font-size="12" lengthAdjust="spacing" textLength="59" x="21" y="213.0762">accepted</text><rect fill="#F1F1F1" height="33.9688" rx="12.5" ry="12.5" style="stroke:#181818;stroke-width:0.5;" width="72" x="129.5" y="191.9375"/><text fill="#000000" font-family="sans-serif" font-size="12" lengthAdjust="spacing" textLength="52" x="139.5" y="213.0762">rejected</text><ellipse cx="165.5" cy="256.9063" fill="none" rx="11" ry="11" style="stroke:#222222;stroke-width:1.0;"/><ellipse cx="165.5" cy="256.9063" fill="#222222" rx="6" ry="6" style="stroke:#222222;stroke-width:1.0;"/><rect fill="#F1F1F1" height="33.9688" rx="12.5" ry="12.5" style="stroke:#181818;stroke-width:0.5;" width="101" x="57.5" y="287.9063"/><text fill="#000000" font-family="sans-serif" font-size="12" lengthAdjust="spacing" textLength="81" x="67.5" y="309.0449">implemented</text><rect fill="#F1F1F1" height="33.9688" rx="12.5" ry="12.5" style="stroke:#181818;stroke-width:0.5;" width="93" x="61.5" y="341.875"/><text fill="#000000" font-family="sans-serif" font-size="12" lengthAdjust="spacing" textLength="73" x="71.5" y="363.0137">deprecated</text><ellipse cx="108" cy="406.8438" fill="none" rx="11" ry="11" style="stroke:#222222;stroke-width:1.0;"/><ellipse cx="108" cy="406.8438" fill="#222222" rx="6" ry="6" style="stroke:#222222;stroke-width:1.0;"/><line style="stroke:#181818;stroke-width:1.0;" x1="108" x2="108" y1="30" y2="50"/><polygon fill="#181818" points="104,40,108,50,112,40,108,44" style="stroke:#181818;stroke-width:1.0;"/><line style="stroke:#181818;stroke-width:1.0;" x1="108" x2="108" y1="83.9688" y2="103.9688"/><polygon fill="#181818" points="104,93.9688,108,103.9688,112,93.9688,108,97.9688" style="stroke:#181818;stroke-width:1.0;"/><line style="stroke:#181818;stroke-width:1.0;" x1="165.5" x2="165.5" y1="225.9063" y2="245.9063"/><polygon fill="#181818" points="161.5,235.9063,165.5,245.9063,169.5,235.9063,165.5,239.9063" style="stroke:#181818;stroke-width:1.0;"/><line style="stroke:#181818;stroke-width:1.0;" x1="60.5" x2="50.5" y1="169.9375" y2="169.9375"/><line style="stroke:#181818;stroke-width:1.0;" x1="50.5" x2="50.5" y1="169.9375" y2="191.9375"/><polygon fill="#181818" points="46.5,181.9375,50.5,191.9375,54.5,181.9375,50.5,185.9375" style="stroke:#181818;stroke-width:1.0;"/><line style="stroke:#181818;stroke-width:1.0;" x1="155.5" x2="165.5" y1="169.9375" y2="169.9375"/><line style="stroke:#181818;stroke-width:1.0;" x1="165.5" x2="165.5" y1="169.9375" y2="191.9375"/><polygon fill="#181818" points="161.5,181.9375,165.5,191.9375,169.5,181.9375,165.5,185.9375" style="stroke:#181818;stroke-width:1.0;"/><line style="stroke:#181818;stroke-width:1.0;" x1="50.5" x2="50.5" y1="225.9063" y2="272.9063"/><line style="stroke:#181818;stroke-width:1.0;" x1="50.5" x2="108" y1="272.9063" y2="272.9063"/><line style="stroke:#181818;stroke-width:1.0;" x1="108" x2="108" y1="272.9063" y2="287.9063"/><polygon fill="#181818" points="104,277.9063,108,287.9063,112,277.9063,108,281.9063" style="stroke:#181818;stroke-width:1.0;"/><line style="stroke:#181818;stroke-width:1.0;" x1="108" x2="108" y1="137.9375" y2="157.9375"/><polygon fill="#181818" points="104,147.9375,108,157.9375,112,147.9375,108,151.9375" style="stroke:#181818;stroke-width:1.0;"/><line style="stroke:#181818;stroke-width:1.0;" x1="108" x2="108" y1="321.875" y2="341.875"/><polygon fill="#181818" points="104,331.875,108,341.875,112,331.875,108,335.875" style="stroke:#181818;stroke-width:1.0;"/><line style="stroke:#181818;stroke-width:1.0;" x1="108" x2="108" y1="375.8438" y2="395.8438"/><polygon fill="#181818" points="104,385.8438,108,395.8438,112,385.8438,108,389.8438" style="stroke:#181818;stroke-width:1.0;"/><!--SRC=[DOqn3WCX30Hxly8bzmKeKkSP22yAfpkmR3VvVHAab3ipqdfK2w8iLdiKocfBbqCAqUYSdiwrDMX07WV72vFJ6tuGS_wBGhWSdERQs72YRSpiiPGmPVJlnRZrmesvNHQeeTKzwDTz0000]--></g></svg>